<svg version="1" xmlns="http://www.w3.org/2000/svg" width="360" height="360" viewBox="0 0 270.000000 270.000000"><path d="M51 13.4c-.4 1.2-1 4.2-1.4 6.7-.4 2.5-.9 5.9-1.2 7.5-.4 2.7-.7 4.2-1.9 10.4-.3 1.4-.8 4.1-1.1 6-.3 1.9-.7 4.2-.9 5-.2.8-.7 3.5-1 6-.4 2.5-1 6.2-1.4 8.2-.6 2.5-.5 3.8.3 4 1.9.7 206.4.3 207.1-.3.6-.7.8-1.6 2-8.9.4-2.5.9-5.4 1.1-6.5.5-2.4 2.1-11.7 2.8-16 .3-1.7.8-4.1 1.1-5.5.3-1.4.7-4.1 1-6 .2-1.9.7-5.1 1.1-7 .3-1.9.7-4 .7-4.5.1-.7-35-1-103.6-1.1H51.8l-.8 2zM41.3 107.8c-4.2.3-4.2.3-4.9 5-.4 2.6-.8 5.6-1.1 6.7-.8 4.1-1.2 6.2-2.8 15-.8 4.9-1.8 10.3-2.1 12-2.9 15.4-3.1 17.5-1.5 17.6.9 0 47.7.1 104.1.2h102.5l.7-3.4c.4-1.9.9-4.8 1.2-6.4.3-1.7.8-4.1 1-5.5.3-1.4.9-5.2 1.5-8.5s1.3-7.4 1.6-9c.2-1.7 1.3-7.4 2.3-12.8 1.1-5.4 1.6-9.9 1.2-10.2-.3-.2-2.8-.4-5.6-.4-2.7-.1-11.1-.2-18.7-.3-7.5-.2-13.7.1-13.7.5 0 .5-.4.5-1 .2-.5-.3-3.8-.5-7.2-.5-3.5 0-7 .1-7.8.1h-28.5c-1.1 0-4-.1-6.4-.1-2.4 0-4.6.1-4.8.3-.2.3-2 .1-3.9-.3-1.9-.5-3.7-.4-4 .1-.3.5-1 .7-1.5.4-.5-.4-6.4-.6-13.1-.5-6.8 0-13.2.1-14.3.1h-12c-.8 0-10.8 0-20-.1-1.1 0-4 .1-6.5.1h-5.5c-.5 0-5-.1-9.8-.2-4.8-.1-9 .1-9.3.4-.3.3-1.8.2-3.2-.1-1.5-.4-4.6-.6-6.9-.4zM19.4 208c-.4 3-.8 5.7-.9 6-.1.3-.5 2.5-.9 5-.5 2.5-1 5.4-1.2 6.5-.8 4.2-1.6 8.1-2 11-.3 1.6-.7 3.9-.9 5-.2 1.1-.7 3.8-1 6-.4 2.2-1 5.5-1.5 7.2-.5 1.8-.5 3.5-.2 3.7.4.2 47.3.4 104.4.4l103.6-.1.6-3.1c.7-3.5 1.6-9.1 2-12.1.2-1.1.6-3.1.9-4.5.4-1.4.9-4.1 1.2-6 .2-1.9.7-4.9 1.1-6.5 2.2-11.5 3.5-19.4 3.7-21.5l.2-2.4-104.2-.1H20.2l-.8 5.5z"/></svg>