<svg
	width="168"
	height="57"
	viewBox="0 0 168 57"
	fill="none"
	xmlns="http://www.w3.org/2000/svg"
>
	<path
		d="M6.20996 47.806L13.1 8.83203H24.175L17.284 47.806H6.20996Z"
		fill="black"
	/>
	<path
		d="M162.066 8.83203H126.954L125.359 17.739H137.349L131.978 47.806H143.167L148.538 17.739H160.472L162.066 8.83203Z"
		fill="black"
	/>
	<path
		d="M116.674 17.761L118.242 8.97998H85.634L84.074 17.761H116.674Z"
		fill="#B72C30"
	/>
	<path
		d="M113.5 39.0271H80.897L79.334 47.8061H111.937L113.5 39.0271Z"
		fill="#B72C30"
	/>
	<path
		d="M114.48 32.8981L116.044 24.1221H83.4419L81.8779 32.8981H114.48Z"
		fill="#B72C30"
	/>
	<path
		d="M62.577 8.83203L50.7071 30.39L45.6241 8.83203H32.396L25.55 47.806H36.774L41.083 23.776L45.531 47.806H50.01L63.59 23.716L59.273 47.806H70.502L77.486 8.83203H62.577Z"
		fill="black"
	/>
</svg>
